<svg width="147" height="43" viewBox="0 0 147 43" fill="none" xmlns="http://www.w3.org/2000/svg">
<g id="Group">
<g id="Group_2">
<g id="Group_3">
<path id="Vector" d="M25.3369 10.321L28.4298 4.92753C29.3278 3.3794 28.779 1.33188 27.2326 0.43297C25.6861 -0.465943 23.6408 0.0833924 22.7428 1.63152L19.6499 7.02499C13.065 4.92753 5.63195 7.62427 2.04016 13.9167C-0.254592 17.9118 -0.553907 22.4563 0.8429 26.5014L6.57979 16.5634C7.87682 14.2662 10.0219 12.6682 12.5661 11.969C15.1103 11.2699 17.7542 11.6194 20.049 12.9678C24.7383 15.6645 26.3845 21.7572 23.6408 26.4515C20.9469 31.1458 14.9107 32.7938 10.1716 30.0471L13.4641 24.3041C15.0105 25.203 17.0558 24.6537 17.9538 23.1055C18.8517 21.5075 18.303 19.5099 16.7565 18.611C15.2101 17.7121 13.1647 18.2614 12.2668 19.8095L1.79073 37.9875C0.892785 39.5856 1.44153 41.5832 2.988 42.4821C4.53446 43.381 6.57979 42.8317 7.47773 41.2835L10.5707 35.8901C17.1556 37.9875 24.5886 35.2908 28.1804 28.9984C31.8221 22.756 30.4253 15.0153 25.3369 10.321Z" fill="#181A1D"/>
</g>
</g>
<g id="Group_4">
<path id="Vector_2" d="M39.2563 14.2163H44.3447C47.288 14.2163 49.7324 15.6646 49.7324 19.0604C49.7324 22.4563 47.288 23.9545 44.3447 23.9545H42.2495V28.6988H39.2563V14.2163ZM44.2449 21.3077C45.6916 21.3077 46.6395 20.6585 46.6395 19.0604C46.6395 17.4624 45.6418 16.8132 44.2449 16.8132H42.1996V21.3077H44.2449Z" fill="#181A1D"/>
<path id="Vector_3" d="M54.0728 14.2163H63.6508V16.8631H57.0659V20.2091H62.8527V22.756H57.0659V26.1019H63.9502V28.6988H54.0728V14.2163Z" fill="#181A1D"/>
<path id="Vector_4" d="M68.939 14.2163H71.9321V26.1019H78.4672V28.6988H68.939V14.2163Z" fill="#181A1D"/>
<path id="Vector_5" d="M81.8091 21.4575C81.8091 17.1627 85.1514 14.0165 89.292 14.0165C93.4824 14.0165 96.7749 17.1627 96.7749 21.4575C96.7749 25.7523 93.4824 28.8985 89.292 28.8985C85.1514 28.8985 81.8091 25.7523 81.8091 21.4575ZM93.7318 21.4575C93.7318 18.7608 91.9359 16.6633 89.292 16.6633C86.648 16.6633 84.8521 18.7109 84.8521 21.4575C84.8521 24.1543 86.648 26.2517 89.292 26.2517C91.9359 26.2517 93.7318 24.1543 93.7318 21.4575Z" fill="#181A1D"/>
<path id="Vector_6" d="M104.108 16.8132H99.9673V14.1664H111.242V16.8132H107.101V28.6988H104.108V16.8132Z" fill="#181A1D"/>
<path id="Vector_7" d="M114.434 21.4575C114.434 17.1627 117.776 14.0165 121.917 14.0165C126.107 14.0165 129.4 17.1627 129.4 21.4575C129.4 25.7523 126.058 28.8985 121.917 28.8985C117.727 28.8985 114.434 25.7523 114.434 21.4575ZM126.307 21.4575C126.307 18.7608 124.511 16.6633 121.867 16.6633C119.223 16.6633 117.427 18.7109 117.427 21.4575C117.427 24.1543 119.223 26.2517 121.867 26.2517C124.561 26.2517 126.307 24.1543 126.307 21.4575Z" fill="#181A1D"/>
<path id="Vector_8" d="M138.479 21.9569C137.781 21.2578 136.733 19.9593 136.733 19.9593C136.733 19.9593 136.933 21.5574 136.933 22.6061V28.6987H134.189V14.0665H134.488L141.772 20.9581C142.47 21.6073 143.468 22.9557 143.468 22.9557C143.468 22.9557 143.268 21.3077 143.268 20.3089V14.2163H146.062V28.8486H145.763L138.479 21.9569Z" fill="#181A1D"/>
</g>
</g>
</svg>
